name C:/MyDriveSym/Projects/mobilecap/Data\Session20210903_0002\mocap\ForceDataProcessed\walking1_forces.mot
datacolumns 19
datarows 19
range 0.00000000 0.00900000
endheader 
time	R_ground_force_vx	R_ground_force_vy	R_ground_force_vz	R_ground_force_px	R_ground_force_py	R_ground_force_pz	R_ground_torque_x	R_ground_torque_y	R_ground_torque_z	L_ground_force_vx	L_ground_force_vy	L_ground_force_vz	L_ground_force_px	L_ground_force_py	L_ground_force_pz	L_ground_torque_x	L_ground_torque_y	L_ground_torque_z	
          0.00000000	        -18.28237200	         87.48968000	          4.44225400	          0.11890600	          0.00600000	         -0.21765100	          0.00000000	          0.50277800	          0.00000000	          0.00000000	          0.00000000	          0.00000000	          0.74409600	          0.00000000	         -0.27716200	          0.00000000	          0.00000000	          0.00000000	
          0.00050000	        -18.63102700	         89.07624900	          4.50459800	          0.11890600	          0.00600000	         -0.21765100	          0.00000000	          0.50230200	          0.00000000	          0.00000000	          0.00000000	          0.00000000	          0.74409600	          0.00000000	         -0.27716200	          0.00000000	          0.00000000	          0.00000000	
          0.00100000	        -18.98296400	         90.67697600	          4.56726900	          0.11890600	          0.00600000	         -0.21765100	          0.00000000	          0.50182300	          0.00000000	          0.00000000	          0.00000000	          0.00000000	          0.74409600	          0.00000000	         -0.27716200	          0.00000000	          0.00000000	          0.00000000	
          0.00150000	        -19.33818800	         92.29186000	          4.63026300	          0.11890600	          0.00600000	         -0.21765100	          0.00000000	          0.50133800	          0.00000000	          0.00000000	          0.00000000	          0.00000000	          0.74409600	          0.00000000	         -0.27716200	          0.00000000	          0.00000000	          0.00000000	
          0.00200000	        -19.69669900	         93.92089800	          4.69357600	          0.11930200	          0.00600000	         -0.21768300	          0.00000000	          0.50084900	          0.00000000	          0.00000000	          0.00000000	          0.00000000	          0.74409600	          0.00000000	         -0.27716200	          0.00000000	          0.00000000	          0.00000000	
          0.00250000	        -20.05850100	         95.56408400	          4.75720400	          0.11969100	          0.00600000	         -0.21771300	          0.00000000	          0.50035500	          0.00000000	          0.00000000	          0.00000000	          0.00000000	          0.74409600	          0.00000000	         -0.27716200	          0.00000000	          0.00000000	          0.00000000	
          0.00300000	        -20.42359400	         97.22141000	          4.82114300	          0.12007400	          0.00600000	         -0.21774200	          0.00000000	          0.49985500	          0.00000000	          0.00000000	          0.00000000	          0.00000000	          0.74409600	          0.00000000	         -0.27716200	          0.00000000	          0.00000000	          0.00000000	
          0.00350000	        -20.79197800	         98.89286600	          4.88538700	          0.12045100	          0.00600000	         -0.21777000	          0.00000000	          0.49934900	          0.00000000	          0.00000000	          0.00000000	          0.00000000	          0.74409600	          0.00000000	         -0.27716200	          0.00000000	          0.00000000	          0.00000000	
          0.00400000	        -21.16365600	        100.57843900	          4.94993200	          0.12082200	          0.00600000	         -0.21779700	          0.00000000	          0.49883800	          0.00000000	          0.00000000	          0.00000000	          0.00000000	          0.74409600	          0.00000000	         -0.27716200	          0.00000000	          0.00000000	          0.00000000	
          0.00450000	        -21.53862600	        102.27811300	          5.01477400	          0.12118600	          0.00600000	         -0.21782300	          0.00000000	          0.49832000	          0.00000000	          0.00000000	          0.00000000	          0.00000000	          0.74409600	          0.00000000	         -0.27716200	          0.00000000	          0.00000000	          0.00000000	
          0.00500000	        -21.91688700	        103.99187000	          5.07990800	          0.12154500	          0.00600000	         -0.21784800	          0.00000000	          0.49779600	          0.00000000	          0.00000000	          0.00000000	          0.00000000	          0.74409600	          0.00000000	         -0.27716200	          0.00000000	          0.00000000	          0.00000000	
          0.00550000	        -22.29843900	        105.71969100	          5.14532800	          0.12189900	          0.00600000	         -0.21787200	          0.00000000	          0.49726500	          0.00000000	          0.00000000	          0.00000000	          0.00000000	          0.74409600	          0.00000000	         -0.27716200	          0.00000000	          0.00000000	          0.00000000	
          0.00600000	        -22.68327900	        107.46155200	          5.21103000	          0.12224700	          0.00600000	         -0.21789500	          0.00000000	          0.49672700	          0.00000000	          0.00000000	          0.00000000	          0.00000000	          0.74409600	          0.00000000	         -0.27716200	          0.00000000	          0.00000000	          0.00000000	
          0.00650000	        -23.07140500	        109.21742700	          5.27700900	          0.12259000	          0.00600000	         -0.21791700	          0.00000000	          0.49618200	          0.00000000	          0.00000000	          0.00000000	          0.00000000	          0.74409600	          0.00000000	         -0.27716200	          0.00000000	          0.00000000	          0.00000000	
          0.00700000	        -23.46281500	        110.98728800	          5.34325900	          0.12292800	          0.00600000	         -0.21793800	          0.00000000	          0.49563000	          0.00000000	          0.00000000	          0.00000000	          0.00000000	          0.74409600	          0.00000000	         -0.27716200	          0.00000000	          0.00000000	          0.00000000	
          0.00750000	        -23.85750500	        112.77110500	          5.40977400	          0.12326200	          0.00600000	         -0.21795800	          0.00000000	          0.49506900	          0.00000000	          0.00000000	          0.00000000	          0.00000000	          0.74409600	          0.00000000	         -0.27716200	          0.00000000	          0.00000000	          0.00000000	
          0.00800000	        -24.25547000	        114.56884200	          5.47655000	          0.12359000	          0.00600000	         -0.21797700	          0.00000000	          0.49450100	          0.00000000	          0.00000000	          0.00000000	          0.00000000	          0.74409600	          0.00000000	         -0.27716200	          0.00000000	          0.00000000	          0.00000000	
          0.00850000	        -24.65670700	        116.38046400	          5.54358000	          0.12391500	          0.00600000	         -0.21799600	          0.00000000	          0.49392400	          0.00000000	          0.00000000	          0.00000000	          0.00000000	          0.74409600	          0.00000000	         -0.27716200	          0.00000000	          0.00000000	          0.00000000	
          0.00900000	        -25.06120900	        118.20593000	          5.61085900	          0.12423500	          0.00600000	         -0.21801400	          0.00000000	          0.49333900	          0.00000000	          0.00000000	          0.00000000	          0.00000000	          0.74409600	          0.00000000	         -0.27716200	          0.00000000	          0.00000000	          0.00000000	
